<svg width="100" height="100" viewBox="0 0 100 100" fill="none" xmlns="http://www.w3.org/2000/svg">
<g filter="url(#filter0_d_0_433)">
<rect x="10" y="10" width="80" height="80" rx="40" fill="white"/>
<path d="M71.3737 41.2312C71.0278 41.2312 70.7475 41.5115 70.7475 41.8574V67.0877C70.7475 67.4203 70.4769 67.6909 70.1443 67.6909H53.0607C52.7148 67.6909 52.4344 67.9712 52.4344 68.3171C52.4344 68.6629 52.7148 68.9433 53.0607 68.9433H70.1444C71.1676 68.9433 72 68.1109 72 67.0878V41.8574C72 41.5116 71.7196 41.2312 71.3737 41.2312Z" fill="#EE2E24"/>
<path d="M70.1444 28.5459H29.8556C28.8324 28.5459 28 29.3783 28 30.4015V67.0876C28 68.1108 28.8324 68.9431 29.8556 68.9431H31.4923C31.8382 68.9431 32.1185 68.6628 32.1185 68.3169C32.1185 67.9711 31.8382 67.6907 31.4923 67.6907H29.8556C29.523 67.6907 29.2524 67.4201 29.2524 67.0875V30.4015C29.2524 30.0689 29.523 29.7983 29.8556 29.7983H70.1444C70.4769 29.7983 70.7476 30.0689 70.7476 30.4015V37.9327C70.7476 38.2786 71.0279 38.559 71.3738 38.559C71.7197 38.559 72 38.2786 72 37.9327V30.4015C71.9999 29.3783 71.1675 28.5459 70.1444 28.5459Z" fill="#EE2E24"/>
<path d="M52.6835 54.9254C52.6835 53.9734 51.9092 53.199 50.9572 53.199H50.7188H33.2136C32.2616 53.199 31.4872 53.9734 31.4872 54.9254C31.4872 55.8773 32.2616 56.6518 33.2136 56.6518H34.3113L32.8948 69.8864C32.8524 70.2831 32.9752 70.6643 33.2408 70.9598C33.523 71.2737 33.9418 71.4539 34.39 71.4539H50.163C50.6112 71.4539 51.03 71.2738 51.3122 70.9598C51.5777 70.6644 51.7006 70.2831 51.6581 69.8864L50.2417 56.6518H50.9572C51.9091 56.6518 52.6835 55.8773 52.6835 54.9254ZM33.2136 55.3994C32.9522 55.3994 32.7395 55.1868 32.7395 54.9254C32.7395 54.664 32.9522 54.4513 33.2136 54.4513H34.5467L34.4452 55.3994H33.2136ZM34.39 70.2014C34.2966 70.2014 34.2173 70.1727 34.1723 70.1226C34.146 70.0933 34.1358 70.0606 34.1401 70.0196L35.8062 54.4513H42.8557L43.6563 70.2014H34.39ZM44.9102 70.2014L44.1096 54.4513H45.6631L46.9112 70.2014H44.9102ZM50.4129 70.0197C50.4172 70.0606 50.4071 70.0933 50.3807 70.1226C50.3356 70.1727 50.2563 70.2014 50.163 70.2014H48.1675L46.9195 54.4513H48.7467L50.4129 70.0197ZM50.1077 55.3994L50.0062 54.4513H50.9571C51.2185 54.4513 51.4311 54.6639 51.4311 54.9254C51.4311 55.1868 51.2185 55.3994 50.9571 55.3994H50.1077Z" fill="#EE2E24"/>
<path d="M60.3126 53.199H57.0945C56.4232 53.199 55.877 53.7452 55.877 54.4165V57.6346C55.877 58.306 56.4232 58.8521 57.0945 58.8521H60.3126C60.984 58.8521 61.5302 58.306 61.5302 57.6346V54.4165C61.5302 53.7452 60.984 53.199 60.3126 53.199ZM60.2778 57.5998H57.1293V54.4514H60.2778V57.5998Z" fill="#F99B2A"/>
<path d="M67.2952 53.199H64.0771C63.4057 53.199 62.8595 53.7452 62.8595 54.4165V57.6346C62.8595 58.306 63.4057 58.8521 64.0771 58.8521H67.2952C67.9665 58.8521 68.5127 58.306 68.5127 57.6346V54.4165C68.5127 53.7452 67.9665 53.199 67.2952 53.199ZM67.2603 57.5998H64.1119V54.4514H67.2603V57.5998Z" fill="#F99B2A"/>
<path d="M60.3126 60.0342H57.0945C56.4232 60.0342 55.877 60.5804 55.877 61.2517V64.4698C55.877 65.1412 56.4232 65.6874 57.0945 65.6874H60.3126C60.984 65.6874 61.5302 65.1412 61.5302 64.4698V61.2517C61.5302 60.5803 60.984 60.0342 60.3126 60.0342ZM60.2778 64.4349H57.1293V61.2865H60.2778V64.4349Z" fill="#F99B2A"/>
<path d="M67.2952 60.0342H64.0771C63.4057 60.0342 62.8595 60.5804 62.8595 61.2517V64.4698C62.8595 65.1412 63.4057 65.6874 64.0771 65.6874H67.2952C67.9665 65.6874 68.5127 65.1412 68.5127 64.4698V61.2517C68.5127 60.5803 67.9665 60.0342 67.2952 60.0342ZM67.2603 64.4349H64.1119V61.2865H67.2603V64.4349Z" fill="#EE2E24"/>
<path d="M68.5128 33.8899C68.5128 32.8958 67.7039 32.0869 66.7098 32.0869H33.2901C32.296 32.0869 31.4872 32.8958 31.4872 33.8899V48.0018C31.4872 48.9959 32.296 49.8048 33.2901 49.8048H66.7098C67.7039 49.8048 68.5128 48.996 68.5128 48.0018V33.8899ZM67.2604 48.0018C67.2604 48.3054 67.0134 48.5524 66.7098 48.5524H33.2901C32.9865 48.5524 32.7395 48.3054 32.7395 48.0018V33.8899C32.7395 33.5863 32.9865 33.3393 33.2901 33.3393H66.7098C67.0134 33.3393 67.2604 33.5863 67.2604 33.8899V48.0018Z" fill="#EE2E24"/>
<path d="M44.0607 44.0292L42.1588 37.8252C42.047 37.4693 41.5893 37.2964 41.1215 37.2964C40.6536 37.2964 40.196 37.4693 40.0841 37.8252L38.1924 44.0292C38.1823 44.0699 38.1721 44.1106 38.1721 44.1411C38.1721 44.5174 38.7518 44.792 39.1893 44.792C39.4435 44.792 39.6469 44.7106 39.7079 44.4971L40.0536 43.2258H42.1996L42.5453 44.4971C42.6063 44.7106 42.8097 44.792 43.064 44.792C43.5014 44.792 44.0811 44.5174 44.0811 44.1411C44.0811 44.1106 44.0709 44.0699 44.0607 44.0292ZM40.379 42.0053L41.1215 39.2796L41.864 42.0053H40.379Z" fill="#F99B2A"/>
<path d="M51.5053 37.3569H47.1117C46.776 37.3569 46.6337 37.723 46.6337 38.0587C46.6337 38.4452 46.8066 38.7807 47.1117 38.7807H48.5153V44.3033C48.5153 44.6288 48.912 44.7915 49.3086 44.7915C49.7052 44.7915 50.1018 44.6288 50.1018 44.3033V38.7807H51.5053C51.8104 38.7807 51.9834 38.4452 51.9834 38.0587C51.9834 37.723 51.841 37.3569 51.5053 37.3569Z" fill="#F99B2A"/>
<path d="M61.0346 37.3569C60.465 37.3569 60.221 37.4179 59.8039 38.1502L58.7565 39.9809L57.7089 38.1502C57.292 37.4179 57.0479 37.3569 56.4783 37.3569C56.0817 37.3569 55.6851 37.5705 55.6851 38.1502V44.3033C55.6851 44.6288 56.0817 44.7915 56.4783 44.7915C56.8749 44.7915 57.2715 44.6288 57.2715 44.3033V40.3878L58.2377 42.1574C58.3598 42.3913 58.553 42.4523 58.7361 42.4523C58.9294 42.4523 59.1328 42.3812 59.265 42.1574L60.2413 40.4894V44.3033C60.2413 44.6288 60.6379 44.7915 61.0346 44.7915C61.4312 44.7915 61.8278 44.6288 61.8278 44.3033V38.1502C61.8278 37.5705 61.4413 37.3569 61.0346 37.3569Z" fill="#F99B2A"/>
</g>
<defs>
<filter id="filter0_d_0_433" x="0" y="0" width="100" height="100" filterUnits="userSpaceOnUse" color-interpolation-filters="sRGB">
<feFlood flood-opacity="0" result="BackgroundImageFix"/>
<feColorMatrix in="SourceAlpha" type="matrix" values="0 0 0 0 0 0 0 0 0 0 0 0 0 0 0 0 0 0 127 0" result="hardAlpha"/>
<feOffset/>
<feGaussianBlur stdDeviation="5"/>
<feComposite in2="hardAlpha" operator="out"/>
<feColorMatrix type="matrix" values="0 0 0 0 0 0 0 0 0 0 0 0 0 0 0 0 0 0 0.1 0"/>
<feBlend mode="normal" in2="BackgroundImageFix" result="effect1_dropShadow_0_433"/>
<feBlend mode="normal" in="SourceGraphic" in2="effect1_dropShadow_0_433" result="shape"/>
</filter>
</defs>
</svg>
