<svg width="81" height="80" viewBox="0 0 81 80" fill="none" xmlns="http://www.w3.org/2000/svg">
<g filter="url(#filter0_d_1_359)">
<rect x="10.25" y="10" width="60" height="60" rx="30" fill="white"/>
<g clip-path="url(#clip0_1_359)">
<path d="M32.2282 32.0039C31.7578 32.0039 31.3095 32.0039 30.8686 32.0039C30.435 31.9966 30.2586 31.8275 30.2586 31.4013C30.2586 30.806 30.2586 30.2107 30.2586 29.6227C30.2586 29.1818 30.435 29.0127 30.8906 29.0054C31.3389 29.0054 31.7799 29.0054 32.2429 29.0054C32.2429 28.6673 32.2429 28.3586 32.2429 28.0059C31.8166 28.0059 31.383 28.0059 30.9494 28.0059C30.4129 28.0059 30.2586 27.8515 30.2586 27.3224C30.2586 26.7712 30.2586 26.22 30.2586 25.6688C30.2586 25.1837 30.4276 25.0073 30.9127 25.0073C33.4555 25.0073 35.9911 25.0073 38.5339 25.0073C43.8475 25 49.1684 25 54.4893 25C55.114 25 55.2463 25.1323 55.2463 25.7423C55.2463 26.2347 55.2463 26.7197 55.2463 27.2122C55.2463 27.8736 55.1214 27.9985 54.4746 27.9985C50.8735 27.9985 47.2723 27.9985 43.6711 27.9985C43.5462 27.9985 43.4212 27.9985 43.2743 27.9985C43.2743 28.3293 43.2743 28.6453 43.2743 28.998C43.3992 28.998 43.5168 28.998 43.6417 28.998C47.2723 28.998 50.9102 28.998 54.5408 28.998C55.0993 28.998 55.2463 29.145 55.2463 29.6962C55.2463 30.218 55.2463 30.7398 55.2463 31.2616C55.2463 31.8643 55.114 32.0039 54.5187 32.0039C50.8955 32.0039 47.2723 32.0039 43.6491 32.0039C43.5241 32.0039 43.4065 32.0039 43.2669 32.0039C43.2669 34.0029 43.2669 35.9799 43.2669 38.001C43.3698 38.001 43.48 38.001 43.5903 38.001C44.7735 38.001 45.9641 38.001 47.1474 37.9936C47.4046 37.9936 47.581 38.0818 47.7133 38.3023C48.5217 39.6031 49.3301 40.8966 50.1385 42.1975C50.3443 42.5282 50.2782 42.8148 49.9842 42.9691C49.727 43.1014 49.4844 43.0206 49.3007 42.734C48.7789 41.9035 48.2645 41.073 47.7427 40.2499C47.6839 40.1543 47.6177 40.0661 47.5222 39.9118C47.3605 40.8672 47.2135 41.7565 47.0665 42.6384C46.4859 46.0926 45.9127 49.5541 45.3321 53.0083C45.288 53.2729 45.2512 53.5448 45.1851 53.8021C44.9867 54.559 44.4208 54.9927 43.6344 54.9927C39.7172 54.9927 35.8073 54.9927 31.8901 54.9927C31.0156 54.9927 30.4056 54.4855 30.2659 53.6257C29.5898 49.5835 28.921 45.5414 28.2522 41.4993C28.1714 40.9922 28.0758 40.4851 27.9803 39.9118C27.8921 40.0441 27.8259 40.1249 27.7745 40.2058C27.2527 41.0363 26.7382 41.8667 26.2238 42.6972C26.0327 42.9985 25.8049 43.0794 25.5477 42.9471C25.2463 42.7927 25.1655 42.5135 25.3713 42.1828C25.7387 41.5801 26.1209 40.9848 26.4957 40.3822C26.8926 39.7501 27.3115 39.1254 27.679 38.4713C27.8847 38.1039 28.1567 37.9789 28.5682 37.9863C29.7882 38.0083 31.0009 37.9936 32.2429 37.9936C32.2282 36.002 32.2282 34.0176 32.2282 32.0039ZM29.0165 39.978C29.0312 40.0735 29.0312 40.1176 29.0386 40.1543C29.7735 44.5639 30.5085 48.9809 31.2434 53.3905C31.3242 53.8829 31.4492 53.9931 31.9416 53.9931C35.8147 53.9931 39.6878 53.9931 43.5609 53.9931C43.9945 53.9931 44.1635 53.8609 44.2444 53.4346C44.3399 52.9422 44.4134 52.4498 44.4942 51.9574C45.0307 48.7531 45.5599 45.5561 46.0964 42.3518C46.2213 41.5801 46.3463 40.8158 46.4859 39.978C46.3536 40.1029 46.2801 40.169 46.2066 40.2425C45.435 41.0142 44.6486 41.7785 43.8916 42.5649C43.5976 42.8736 43.289 43.0059 42.8553 42.9985C39.4085 42.9838 35.9617 42.9838 32.5148 42.9912C32.1768 42.9912 31.9269 42.8956 31.6917 42.6531C30.8318 41.7785 29.9499 40.9113 29.0165 39.978ZM46.0009 39.0299C40.4815 39.0299 35.0136 39.0299 29.4942 39.0299C30.4717 40.0073 31.4124 40.9554 32.3605 41.8888C32.4266 41.9549 32.5589 41.9917 32.6618 41.9917C36.0572 41.999 39.4452 41.999 42.8406 41.9917C42.9435 41.9917 43.0685 41.9476 43.142 41.8814C44.09 40.9481 45.0307 40 46.0009 39.0299ZM31.2654 26.977C38.9381 26.977 46.5815 26.977 54.2248 26.977C54.2248 26.6389 54.2248 26.3229 54.2248 26.0216C46.5594 26.0216 38.9161 26.0216 31.2654 26.0216C31.2654 26.3523 31.2654 26.6536 31.2654 26.977ZM40.2537 37.9863C40.2537 36.8398 40.2537 35.73 40.2537 34.6129C40.2537 34.2161 40.4374 33.9956 40.7534 33.9956C41.0695 33.9956 41.2532 34.2234 41.2532 34.6203C41.2532 35.6271 41.2532 36.6414 41.2532 37.6482C41.2532 37.7585 41.2532 37.8687 41.2532 37.9716C41.6133 37.9716 41.9293 37.9716 42.238 37.9716C42.238 34.635 42.238 31.3351 42.238 28.0206C41.9073 28.0206 41.5913 28.0206 41.2532 28.0206C41.2532 28.6894 41.2532 29.3361 41.2532 29.9755C41.2532 30.3283 41.0695 30.5341 40.7681 30.5341C40.4521 30.5414 40.2684 30.3356 40.261 29.9608C40.261 29.7918 40.261 29.6301 40.261 29.461C40.261 28.976 40.261 28.4909 40.261 28.0059C39.9083 28.0059 39.5996 28.0059 39.2836 28.0059C39.2836 31.3351 39.2836 34.6497 39.2836 37.9789C39.5996 37.9863 39.9083 37.9863 40.2537 37.9863ZM43.2669 30.9824C46.9416 30.9824 50.5868 30.9824 54.2248 30.9824C54.2248 30.6443 54.2248 30.3283 54.2248 30.0196C50.5574 30.0196 46.9195 30.0196 43.2669 30.0196C43.2669 30.3356 43.2669 30.6443 43.2669 30.9824ZM34.2419 28.0279C33.8965 28.0279 33.5805 28.0279 33.2718 28.0279C33.2718 31.3572 33.2718 34.6644 33.2718 37.9789C33.6025 37.9789 33.9185 37.9789 34.2419 37.9789C34.2419 34.657 34.2419 31.3498 34.2419 28.0279ZM35.2782 28.0132C35.2782 31.3498 35.2782 34.6644 35.2782 37.9716C35.6162 37.9716 35.9323 37.9716 36.2409 37.9716C36.2409 34.6423 36.2409 31.3351 36.2409 28.0132C35.9102 28.0132 35.6089 28.0132 35.2782 28.0132ZM37.2772 28.0132C37.2772 31.3498 37.2772 34.6644 37.2772 37.9789C37.6079 37.9789 37.9166 37.9789 38.24 37.9789C38.24 34.6497 38.24 31.3351 38.24 28.0132C37.9092 28.0132 37.6006 28.0132 37.2772 28.0132ZM32.2355 30.9824C32.2355 30.6369 32.2355 30.3283 32.2355 30.0196C31.9048 30.0196 31.5888 30.0196 31.2728 30.0196C31.2728 30.3577 31.2728 30.6663 31.2728 30.9824C31.6035 30.9824 31.9122 30.9824 32.2355 30.9824Z" fill="#EE2E24"/>
<path d="M37.7623 44.4978C39.9597 44.5052 41.7529 46.3057 41.7456 48.5032C41.7456 50.7153 39.9303 52.5086 37.7182 52.4939C35.5281 52.4865 33.7422 50.6786 33.7495 48.4738C33.7569 46.2837 35.5648 44.4978 37.7623 44.4978ZM34.7564 48.4811C34.749 50.1421 36.0866 51.487 37.7402 51.4944C39.3938 51.5017 40.7461 50.1641 40.7534 48.5105C40.7608 46.8569 39.4232 45.5047 37.7696 45.4973C36.1087 45.49 34.7564 46.8275 34.7564 48.4811Z" fill="#F99B2A"/>
<path d="M41.2458 32.2759C41.2458 32.3935 41.2532 32.5037 41.2458 32.6213C41.2164 32.8785 41.0107 33.0475 40.7534 33.0475C40.4962 33.0475 40.2831 32.8712 40.261 32.6213C40.2463 32.4155 40.2463 32.2024 40.261 31.9966C40.2757 31.6953 40.4815 31.5042 40.7534 31.5042C41.0254 31.5042 41.2238 31.7026 41.2458 32.0039C41.2532 32.0921 41.2458 32.1803 41.2458 32.2759Z" fill="#F99B2A"/>
</g>
</g>
<defs>
<filter id="filter0_d_1_359" x="0.25" y="0" width="80" height="80" filterUnits="userSpaceOnUse" color-interpolation-filters="sRGB">
<feFlood flood-opacity="0" result="BackgroundImageFix"/>
<feColorMatrix in="SourceAlpha" type="matrix" values="0 0 0 0 0 0 0 0 0 0 0 0 0 0 0 0 0 0 127 0" result="hardAlpha"/>
<feOffset/>
<feGaussianBlur stdDeviation="5"/>
<feComposite in2="hardAlpha" operator="out"/>
<feColorMatrix type="matrix" values="0 0 0 0 0 0 0 0 0 0 0 0 0 0 0 0 0 0 0.1 0"/>
<feBlend mode="normal" in2="BackgroundImageFix" result="effect1_dropShadow_1_359"/>
<feBlend mode="normal" in="SourceGraphic" in2="effect1_dropShadow_1_359" result="shape"/>
</filter>
<clipPath id="clip0_1_359">
<rect width="29.9926" height="30" fill="white" transform="translate(25.2537 25)"/>
</clipPath>
</defs>
</svg>
