<svg width="100" height="100" viewBox="0 0 100 100" fill="none" xmlns="http://www.w3.org/2000/svg">
<g filter="url(#filter0_d_0_422)">
<rect x="10" y="10" width="80" height="80" rx="40" fill="white"/>
<g clip-path="url(#clip0_0_422)">
<path d="M26.5382 30.4745C26.5749 30.3737 26.6115 30.2729 26.639 30.172C27.0331 28.8432 28.1237 28.0092 29.5259 28.0092C32.5595 28 35.6022 28 38.6449 28C45.271 28 51.8971 28 58.5324 28C60.5486 28 61.74 29.2006 61.74 31.226C61.74 38.6494 61.74 46.0729 61.74 53.4964C61.74 53.7713 61.74 54.0462 61.74 54.3945C61.9142 54.3945 62.0791 54.3945 62.2349 54.3945C64.6911 54.3945 67.1564 54.3945 69.6126 54.3945C71.0973 54.3945 71.9862 55.3018 72.0137 56.7957C72.0229 57.5105 71.9679 58.1979 71.4455 58.7844C72.1695 59.6642 72.0504 60.6632 71.9221 61.708C72.4628 61.7721 73.1043 61.5613 73.4709 62.1845C73.4709 64.6315 73.4709 67.0694 73.4709 69.5163C72.7194 71.4959 72.0137 71.9908 69.8875 71.9908C61.5476 71.9908 53.2168 71.9908 44.8769 71.9908C39.7904 71.9908 34.704 71.9908 29.6267 71.9908C28.4078 71.9908 27.4822 71.4776 26.8956 70.4053C26.749 70.1304 26.6665 69.8096 26.5565 69.5163C26.5382 56.5024 26.5382 43.4884 26.5382 30.4745ZM56.1954 70.5245C56.0762 70.0754 55.8929 69.6813 55.8838 69.2872C55.8563 67.0144 55.8654 64.7323 55.8746 62.4595C55.8746 62.0196 56.1587 61.7538 56.5986 61.7263C56.8736 61.708 57.1393 61.7263 57.4143 61.7263C57.2951 60.6724 57.1485 59.6642 57.8725 58.8027C57.176 57.813 57.1302 56.7315 57.5426 55.6867C58.0191 54.5045 59.1006 54.3029 60.237 54.3762C60.237 48.9781 60.237 43.6351 60.237 38.2829C49.4868 38.2829 38.764 38.2829 28.0046 38.2829C28.0046 38.4753 28.0046 38.6403 28.0046 38.8144C28.0046 48.7857 28.0046 58.7661 28.0046 68.7373C28.0046 69.9838 28.5361 70.5153 29.7917 70.5153C37.5542 70.5153 45.3076 70.5153 53.0702 70.5153C54.1058 70.5245 55.1506 70.5245 56.1954 70.5245ZM60.2645 36.789C60.2645 34.8644 60.2645 32.9856 60.2645 31.116C60.2645 30.0621 59.678 29.4755 58.6149 29.4755C48.9644 29.4755 39.3139 29.4755 29.6634 29.4755C28.6003 29.4755 28.0137 30.0621 28.0137 31.1069C28.0137 32.8665 28.0137 34.617 28.0137 36.3766C28.0137 36.5049 28.0321 36.6424 28.0412 36.789C38.7732 36.789 49.4959 36.789 60.2645 36.789ZM57.3318 63.211C57.3318 65.1264 57.3318 66.9869 57.3318 68.8473C57.3318 69.9471 57.9 70.5245 58.9906 70.5245C62.7757 70.5245 66.5607 70.5245 70.3457 70.5245C71.4089 70.5245 71.9862 69.9379 71.9862 68.8748C71.9862 67.1335 71.9862 65.3922 71.9862 63.6509C71.9862 63.5043 71.9771 63.3576 71.9679 63.211C67.0831 63.211 62.2349 63.211 57.3318 63.211ZM64.7094 58.0604C66.3591 58.0604 68.0087 58.0604 69.6584 58.0604C70.2541 58.0604 70.5199 57.7855 70.529 57.1898C70.529 57.0065 70.5382 56.8232 70.529 56.6399C70.5015 56.1541 70.2358 55.87 69.75 55.87C66.3591 55.8609 62.9681 55.8609 59.5772 55.87C59.0914 55.87 58.8256 56.1541 58.7982 56.6399C58.789 56.7957 58.7982 56.9423 58.7982 57.0981C58.8073 57.813 59.0456 58.0604 59.7605 58.0604C61.4101 58.0604 63.0598 58.0604 64.7094 58.0604ZM64.6178 61.7263C66.2949 61.7263 67.9812 61.7263 69.6584 61.7263C70.2541 61.7263 70.5199 61.4514 70.529 60.8557C70.529 60.6724 70.5382 60.4891 70.529 60.3058C70.5015 59.82 70.2358 59.5359 69.75 59.5359C66.3591 59.5268 62.9681 59.5268 59.5772 59.5359C59.0914 59.5359 58.8256 59.82 58.7982 60.3149C58.789 60.4707 58.7982 60.6174 58.7982 60.7732C58.7982 61.488 59.0456 61.7355 59.7605 61.7355C61.3826 61.7263 62.9956 61.7263 64.6178 61.7263Z" fill="#EE2E24"/>
<path d="M55.8654 53.6797C55.8563 60.15 50.5682 65.4106 44.0887 65.3922C37.6459 65.3739 32.3945 60.095 32.4036 53.643C32.4128 47.1727 37.7009 41.9121 44.1804 41.9305C50.6323 41.958 55.8746 47.2277 55.8654 53.6797ZM54.3991 53.6614C54.3991 48.0067 49.7983 43.406 44.1437 43.406C38.4982 43.406 33.8792 48.0067 33.87 53.6522C33.8608 59.3252 38.4799 63.9442 44.1529 63.935C49.8075 63.9167 54.3991 59.316 54.3991 53.6614Z" fill="#F99B2A"/>
<path d="M48.5244 35.3317C47.8096 35.3317 47.0856 35.3409 46.3707 35.3317C45.1151 35.3134 44.1437 34.3603 44.1345 33.1414C44.1345 31.9224 45.0968 30.951 46.3524 30.9327C47.8004 30.9235 49.2485 30.9235 50.7057 30.9327C51.9704 30.9418 52.9327 31.895 52.9419 33.123C52.951 34.3419 51.9796 35.3134 50.724 35.3317C49.9816 35.3409 49.2485 35.3317 48.5244 35.3317ZM48.5336 33.8654C49.221 33.8654 49.9083 33.8654 50.5957 33.8654C51.1272 33.8654 51.4663 33.5721 51.4663 33.1322C51.4663 32.6923 51.1364 32.4082 50.5957 32.399C49.221 32.3899 47.8462 32.3899 46.4715 32.399C45.9308 32.399 45.61 32.6831 45.61 33.1322C45.61 33.5721 45.94 33.8562 46.4807 33.8654C47.1589 33.8745 47.8462 33.8654 48.5336 33.8654Z" fill="#F99B2A"/>
<path d="M33.87 33.1322C33.87 34.3419 32.8711 35.3409 31.6522 35.3317C30.4607 35.3317 29.4801 34.3419 29.4709 33.1413C29.4709 31.9224 30.4699 30.9326 31.6888 30.9326C32.8802 30.9418 33.87 31.9316 33.87 33.1322ZM32.4037 33.1413C32.4037 32.7472 32.0829 32.4081 31.6797 32.4081C31.2856 32.4081 30.9465 32.7289 30.9465 33.1322C30.9465 33.5262 31.2672 33.8653 31.6705 33.8653C32.0554 33.8653 32.3945 33.5354 32.4037 33.1413Z" fill="#F99B2A"/>
<path d="M58.7981 33.1413C58.7981 34.3511 57.7808 35.35 56.5711 35.3317C55.3797 35.3134 54.399 34.3236 54.4082 33.123C54.4082 31.9041 55.4163 30.9143 56.6352 30.9326C57.8267 30.951 58.8073 31.9499 58.7981 33.1413ZM57.3318 33.1138C57.3226 32.7198 56.9835 32.3898 56.5802 32.399C56.1862 32.4082 55.8562 32.7472 55.8654 33.1505C55.8746 33.5446 56.2137 33.8745 56.6169 33.8653C57.011 33.8562 57.3409 33.5079 57.3318 33.1138Z" fill="#F99B2A"/>
<path d="M44.1437 45.5964C48.5886 45.5964 52.1996 49.2348 52.1904 53.6889C52.1812 58.1338 48.552 61.7447 44.0888 61.7264C39.6622 61.7172 36.0604 58.088 36.0604 53.6614C36.0696 49.2165 39.6988 45.5964 44.1437 45.5964ZM50.7332 53.6889C50.7424 50.0413 47.7913 47.0811 44.1346 47.072C40.5328 47.0628 37.5543 50.0138 37.5451 53.5973C37.5268 57.2632 40.4595 60.2509 44.0979 60.26C47.7455 60.2784 50.724 57.3273 50.7332 53.6889Z" fill="#F99B2A"/>
<path d="M49.2576 53.8814C49.1843 56.475 46.9756 58.6929 44.3728 58.7845C43.7679 58.8028 43.4105 58.5462 43.4013 58.0788C43.3921 57.6297 43.7129 57.3548 44.2995 57.3273C46.2149 57.2173 47.6904 55.7418 47.8004 53.808C47.8279 53.2398 48.1212 52.9099 48.5702 52.9374C49.0285 52.9557 49.2759 53.304 49.2576 53.8814Z" fill="#F99B2A"/>
</g>
</g>
<defs>
<filter id="filter0_d_0_422" x="0" y="0" width="100" height="100" filterUnits="userSpaceOnUse" color-interpolation-filters="sRGB">
<feFlood flood-opacity="0" result="BackgroundImageFix"/>
<feColorMatrix in="SourceAlpha" type="matrix" values="0 0 0 0 0 0 0 0 0 0 0 0 0 0 0 0 0 0 127 0" result="hardAlpha"/>
<feOffset/>
<feGaussianBlur stdDeviation="5"/>
<feComposite in2="hardAlpha" operator="out"/>
<feColorMatrix type="matrix" values="0 0 0 0 0 0 0 0 0 0 0 0 0 0 0 0 0 0 0.1 0"/>
<feBlend mode="normal" in2="BackgroundImageFix" result="effect1_dropShadow_0_422"/>
<feBlend mode="normal" in="SourceGraphic" in2="effect1_dropShadow_0_422" result="shape"/>
</filter>
<clipPath id="clip0_0_422">
<rect width="46.9236" height="44" fill="white" transform="translate(26.5382 28)"/>
</clipPath>
</defs>
</svg>
