<svg width="35" height="35" viewBox="0 0 35 35" fill="none" xmlns="http://www.w3.org/2000/svg">
<g filter="url(#filter0_d_189_20)">
<rect x="10.5" y="6.95239" width="14" height="14" rx="7" fill="white"/>
<path d="M17.503 16.5004C17.171 16.5004 16.875 16.4164 16.615 16.2484C16.359 16.0764 16.157 15.8284 16.009 15.5044C15.861 15.1804 15.787 14.7964 15.787 14.3524C15.787 13.9084 15.861 13.5244 16.009 13.2004C16.157 12.8764 16.359 12.6304 16.615 12.4624C16.875 12.2904 17.171 12.2044 17.503 12.2044C17.831 12.2044 18.123 12.2904 18.379 12.4624C18.639 12.6304 18.843 12.8764 18.991 13.2004C19.139 13.5244 19.213 13.9084 19.213 14.3524C19.213 14.7964 19.139 15.1804 18.991 15.5044C18.843 15.8284 18.639 16.0764 18.379 16.2484C18.123 16.4164 17.831 16.5004 17.503 16.5004ZM17.503 15.9664C17.839 15.9664 18.107 15.8284 18.307 15.5524C18.511 15.2764 18.613 14.8764 18.613 14.3524C18.613 13.8284 18.511 13.4284 18.307 13.1524C18.107 12.8764 17.839 12.7384 17.503 12.7384C17.163 12.7384 16.891 12.8764 16.687 13.1524C16.487 13.4284 16.387 13.8284 16.387 14.3524C16.387 14.8764 16.487 15.2764 16.687 15.5524C16.891 15.8284 17.163 15.9664 17.503 15.9664Z" fill="#EE2E24"/>
</g>
<defs>
<filter id="filter0_d_189_20" x="0.5" y="0.952393" width="34" height="34" filterUnits="userSpaceOnUse" color-interpolation-filters="sRGB">
<feFlood flood-opacity="0" result="BackgroundImageFix"/>
<feColorMatrix in="SourceAlpha" type="matrix" values="0 0 0 0 0 0 0 0 0 0 0 0 0 0 0 0 0 0 127 0" result="hardAlpha"/>
<feOffset dy="4"/>
<feGaussianBlur stdDeviation="5"/>
<feComposite in2="hardAlpha" operator="out"/>
<feColorMatrix type="matrix" values="0 0 0 0 0 0 0 0 0 0 0 0 0 0 0 0 0 0 0.15 0"/>
<feBlend mode="normal" in2="BackgroundImageFix" result="effect1_dropShadow_189_20"/>
<feBlend mode="normal" in="SourceGraphic" in2="effect1_dropShadow_189_20" result="shape"/>
</filter>
</defs>
</svg>
