<svg width="91" height="24" viewBox="0 0 91 24" fill="none" xmlns="http://www.w3.org/2000/svg">
<path d="M13.8821 5.36474H17.2936V18.6116H13.8821V5.36474ZM23.239 12.1702C24.588 12.1702 25.5511 11.5067 25.5511 10.1303C25.5511 8.78229 24.6451 8.17575 23.2601 8.17575H22.2827V12.1702H23.239ZM46.8643 15.5938H51.4538V18.6116H43.4029V5.36474H46.8643V15.5938ZM52.5604 5.36474H61.2748V8.37544H55.972V10.5722H61.0397V13.3543H55.972V15.5938H61.2893V18.6116H52.5604V5.36474ZM82.0809 11.7346L86.7848 5.36474H81.9529L77.5985 11.4637V5.36474H73.3729V18.6116H77.5984V12.5126L85.1146 22.1998C83.1651 23.3933 80.9196 24.0162 78.6334 23.9976C77.0462 24.0294 75.4689 23.7404 73.9962 23.1479C72.5235 22.5555 71.1857 21.6718 70.0632 20.5498C68.9406 19.4279 68.0564 18.0909 67.4636 16.6191C66.8708 15.1472 66.5816 13.5709 66.6135 11.9846C66.6209 8.80349 67.8905 5.75524 70.1438 3.5085C72.3971 1.26176 75.4501 0 78.6331 0C81.816 0 84.869 1.26176 87.1223 3.5085C89.3756 5.75524 90.6452 8.80349 90.6527 11.9846C90.6753 14.6692 89.807 17.2857 88.1835 19.4247L82.0809 11.7346ZM28.9348 9.74473C28.9619 10.5549 28.7415 11.354 28.3029 12.0359C27.8643 12.7177 27.2282 13.2498 26.4795 13.5613L29.8559 18.6116H25.8298L22.2827 13.0618V18.6116H18.8712V5.36474H23.1322C26.8579 5.36474 28.9348 6.83449 28.9348 9.74473ZM7.03695 8.26128C6.55325 8.2599 6.07426 8.35622 5.62875 8.54448C5.18323 8.73274 4.78038 9.00904 4.44439 9.35679C4.1084 9.70455 3.8462 10.1166 3.67353 10.5681C3.50087 11.0197 3.4213 11.5015 3.4396 11.9846C3.42069 12.4678 3.49983 12.9499 3.67226 13.4018C3.8447 13.8537 4.10687 14.266 4.44297 14.6139C4.77907 14.9619 5.18216 15.2382 5.62796 15.4263C6.07376 15.6145 6.55304 15.7105 7.03695 15.7086C7.68871 15.7059 8.32863 15.5343 8.89413 15.2105C9.45963 14.8866 9.93136 14.4216 10.2632 13.861L12.8967 15.5803C12.279 16.5945 11.4066 17.4297 10.3661 18.0027C9.32556 18.5757 8.15313 18.8667 6.96525 18.8468C6.05546 18.8603 5.15207 18.6928 4.30762 18.3542C3.46317 18.0155 2.69452 17.5125 2.04638 16.8742C1.39824 16.236 0.883543 15.4753 0.53223 14.6365C0.180917 13.7976 0 12.8974 0 11.988C0 11.0786 0.180917 10.1784 0.53223 9.33951C0.883543 8.50067 1.39824 7.74001 2.04638 7.10177C2.69452 6.46354 3.46317 5.96048 4.30762 5.62184C5.15207 5.2832 6.05546 5.11575 6.96525 5.12922C8.158 5.09604 9.33829 5.37888 10.3863 5.94902C11.4343 6.51916 12.3127 7.3563 12.9322 8.37544L10.2337 10.1446C9.9184 9.57328 9.45537 9.09712 8.89298 8.76584C8.33059 8.43456 7.68975 8.26026 7.03695 8.26128ZM36.6511 8.26128C36.1673 8.25984 35.6883 8.35612 35.2427 8.54434C34.7972 8.73257 34.3943 9.00887 34.0582 9.35663C33.7222 9.70439 33.46 10.1164 33.2873 10.568C33.1146 11.0196 33.035 11.5015 33.0533 11.9846C33.0344 12.4679 33.1136 12.95 33.286 13.4019C33.4585 13.8538 33.7207 14.2661 34.0568 14.6141C34.393 14.962 34.7961 15.2384 35.242 15.4265C35.6878 15.6146 36.1671 15.7105 36.6511 15.7086C37.3028 15.7059 37.9426 15.5343 38.508 15.2105C39.0735 14.8866 39.5451 14.4216 39.8768 13.861L42.5108 15.5803C41.7213 16.8356 40.5441 17.7996 39.1574 18.3265C37.7706 18.8535 36.2499 18.9145 34.8254 18.5005C33.4008 18.0864 32.15 17.2199 31.2623 16.0319C30.3746 14.8439 29.8983 13.3993 29.9055 11.9166C29.9127 10.4339 30.403 8.99397 31.3022 7.81468C32.2015 6.63539 33.4606 5.78098 34.8891 5.38079C36.3176 4.9806 37.8377 5.05641 39.2192 5.59675C40.6007 6.13709 41.7685 7.11254 42.5458 8.37544L39.8481 10.1446C39.5327 9.57335 39.0697 9.09723 38.5073 8.76596C37.9449 8.43468 37.3039 8.26038 36.6511 8.26128Z" fill="white"/>
</svg>
